<svg width="40" height="25" viewBox="0 0 40 25" fill="none" xmlns="http://www.w3.org/2000/svg">
<path d="M1.38765 13.9351H9.08765L10.2324 23.3075C10.277 23.7475 10.6277 24.0552 11.0676 24.0999H11.1123C11.5076 24.0999 11.86 23.8352 11.9476 23.4399L16.3476 6.41234L21.0125 21.8572C21.1448 22.2525 21.4972 22.5172 21.9372 22.4725C22.3325 22.4278 22.6849 22.1202 22.7296 21.6802L23.6543 13.4953H31.5743C32.059 13.4953 32.4543 13.1 32.4543 12.6153V12.5706C32.4543 12.5259 32.4543 12.4383 32.4096 12.3953C32.4096 12.3506 32.4096 12.3506 32.3649 12.3076C32.3649 12.2629 32.3202 12.22 32.3202 12.1753C32.3202 12.1753 32.3202 12.1306 32.2755 12.1306C32.2308 12.0859 32.1879 12.0429 32.1432 11.9553L32.0985 11.9106C32.0538 11.8659 32.0108 11.8659 31.9661 11.8229H31.9215C29.5015 10.5476 25.9366 7.42294 25.4966 4.82782C25.3642 3.94782 25.5842 3.15547 26.2442 2.49547C27.6519 1.00018 29.6319 1.96782 31.0393 3.02312C31.347 3.24312 31.787 3.24312 32.0946 3.02312C33.5023 1.96782 35.4393 1.04312 36.8471 2.53841C37.3747 3.11077 37.6394 3.72606 37.6394 4.47371C37.5947 5.88136 36.5394 7.59841 34.6471 9.35859C34.2947 9.71093 34.2518 10.2386 34.6024 10.5909C34.9547 10.9433 35.4824 10.9863 35.8348 10.6356C37.4195 9.18328 39.31 6.89563 39.3995 4.52051C39.4441 3.33286 39.0041 2.23286 38.1242 1.35286C36.4518 -0.407139 34.0765 -0.407138 31.569 1.30818C29.0167 -0.407121 26.6415 -0.364177 24.969 1.35286C23.9567 2.40816 23.5167 3.77286 23.7814 5.18051C24.1767 7.5558 26.3767 10.0654 28.6214 11.7805H22.9476C22.5076 11.7805 22.1123 12.1329 22.0676 12.5729L21.5399 17.3253L17.1846 2.93774C17.0523 2.54243 16.7446 2.32245 16.3046 2.32245C15.9093 2.32245 15.557 2.58713 15.4694 2.98245L11.4646 18.5576L10.7599 12.9682C10.7153 12.5282 10.3199 12.1759 9.87995 12.1759H1.38751C0.902803 12.1759 0.507507 12.5712 0.507507 13.0559C0.507507 13.5406 0.904537 13.9359 1.38751 13.9359L1.38765 13.9351Z" fill="black"/>
</svg>
