<svg width="91" height="17" viewBox="0 0 91 17" fill="none" xmlns="http://www.w3.org/2000/svg">
<path d="M9.08558 2.43824C9.4136 1.5818 10.6253 1.5818 10.9533 2.43824L12.0229 5.23102C12.1711 5.6179 12.5425 5.87336 12.9568 5.87336L16.0202 5.87336C17.0282 5.87336 17.403 7.19577 16.5449 7.72464L14.3648 9.06838C13.9556 9.32063 13.7837 9.82839 13.9557 10.2773L14.8519 12.6173C15.1939 13.5104 14.2075 14.3281 13.3933 13.8263L10.5441 12.0701C10.2224 11.8718 9.81643 11.8718 9.49473 12.0701L6.64554 13.8263C5.83139 14.3281 4.84492 13.5104 5.18699 12.6173L6.0832 10.2773C6.25515 9.82839 6.0833 9.32063 5.67405 9.06838L3.49395 7.72464C2.63589 7.19577 3.0107 5.87336 4.01865 5.87336L7.08209 5.87336C7.49638 5.87336 7.86777 5.6179 8.01594 5.23102L9.08558 2.43824Z" fill="#F9896B"/>
<path d="M26.7669 2.43824C27.095 1.5818 28.3066 1.5818 28.6346 2.43824L29.7043 5.23102C29.8524 5.6179 30.2238 5.87336 30.6381 5.87336L33.7016 5.87336C34.7095 5.87336 35.0843 7.19577 34.2263 7.72464L32.0462 9.06838C31.6369 9.32063 31.4651 9.82839 31.637 10.2773L32.5332 12.6173C32.8753 13.5104 31.8888 14.3281 31.0747 13.8263L28.2255 12.0701C27.9038 11.8718 27.4978 11.8718 27.1761 12.0701L24.3269 13.8263C23.5127 14.3281 22.5263 13.5104 22.8683 12.6173L23.7646 10.2773C23.9365 9.82839 23.7647 9.32063 23.3554 9.06838L21.1753 7.72464C20.3172 7.19577 20.692 5.87336 21.7 5.87336L24.7634 5.87336C25.1777 5.87336 25.5491 5.6179 25.6973 5.23102L26.7669 2.43824Z" fill="#F9896B"/>
<path d="M44.4483 2.43824C44.7763 1.5818 45.988 1.5818 46.316 2.43824L47.3856 5.23102C47.5338 5.6179 47.9052 5.87336 48.3195 5.87336L51.3829 5.87336C52.3909 5.87336 52.7657 7.19577 51.9076 7.72464L49.7275 9.06838C49.3183 9.32063 49.1464 9.82839 49.3184 10.2773L50.2146 12.6173C50.5566 13.5104 49.5702 14.3281 48.756 13.8263L45.9068 12.0701C45.5851 11.8718 45.1791 11.8718 44.8574 12.0701L42.0082 13.8263C41.1941 14.3281 40.2076 13.5104 40.5497 12.6173L41.4459 10.2773C41.6178 9.82839 41.446 9.32063 41.0368 9.06838L38.8566 7.72464C37.9986 7.19577 38.3734 5.87336 39.3814 5.87336L42.4448 5.87336C42.8591 5.87336 43.2305 5.6179 43.3786 5.23102L44.4483 2.43824Z" fill="#F9896B"/>
<path d="M62.1296 2.43824C62.4576 1.5818 63.6693 1.5818 63.9973 2.43824L65.067 5.23102C65.2151 5.6179 65.5865 5.87336 66.0008 5.87336L69.0642 5.87336C70.0722 5.87336 70.447 7.19577 69.5889 7.72464L67.4088 9.06838C66.9996 9.32063 66.8278 9.82839 66.9997 10.2773L67.8959 12.6173C68.238 13.5104 67.2515 14.3281 66.4374 13.8263L63.5882 12.0701C63.2665 11.8718 62.8605 11.8718 62.5388 12.0701L59.6896 13.8263C58.8754 14.3281 57.889 13.5104 58.231 12.6173L59.1272 10.2773C59.2992 9.82839 59.1273 9.32063 58.7181 9.06838L56.538 7.72464C55.6799 7.19577 56.0547 5.87336 57.0627 5.87336L60.1261 5.87336C60.5404 5.87336 60.9118 5.6179 61.06 5.23102L62.1296 2.43824Z" fill="#F9896B"/>
<path d="M79.811 2.43824C80.139 1.5818 81.3506 1.5818 81.6787 2.43824L82.7483 5.23102C82.8965 5.6179 83.2679 5.87336 83.6822 5.87336L86.7456 5.87336C87.7535 5.87336 88.1284 7.19577 87.2703 7.72464L85.0902 9.06838C84.6809 9.32063 84.5091 9.82839 84.681 10.2773L85.5773 12.6173C85.9193 13.5104 84.9329 14.3281 84.1187 13.8263L81.2695 12.0701C80.9478 11.8718 80.5418 11.8718 80.2201 12.0701L77.3709 13.8263C76.5568 14.3281 75.5703 13.5104 75.9124 12.6173L76.8086 10.2773C76.9805 9.82839 76.8087 9.32063 76.3994 9.06838L74.2193 7.72464C73.3613 7.19577 73.7361 5.87336 74.744 5.87336L77.8075 5.87336C78.2218 5.87336 78.5932 5.6179 78.7413 5.23102L79.811 2.43824Z" fill="#F9896B"/>
</svg>
