<svg width="32" height="30" viewBox="0 0 32 30" fill="none" xmlns="http://www.w3.org/2000/svg">
<path d="M15.9968 5.0828L9.42801 7.17968C9.39832 8.91404 9.32332 10.6125 9.25301 12.3189C9.21863 13.1032 9.18894 13.8954 9.15926 14.6626L9.15301 14.7501C9.10613 15.9564 9.04832 17.5501 9.46394 18.6048C9.63894 19.0564 9.9327 19.4783 10.2671 19.8642C10.6249 20.2735 11.0343 20.6485 11.4327 20.9954C12.8327 22.2079 14.4327 23.3626 15.9907 24.4704C17.5548 23.3626 19.1548 22.2142 20.5487 20.9954C20.9471 20.6501 21.3565 20.2751 21.7143 19.8642C22.0534 19.4782 22.3409 19.0564 22.5175 18.6048C22.9331 17.5439 22.8753 15.9501 22.8284 14.7501L22.8221 14.6626C22.7925 13.9017 22.7581 13.1095 22.7284 12.3189C22.6581 10.6142 22.5815 8.9142 22.5534 7.17968L15.9846 5.0828H15.9968ZM8.62641 6.125L15.8044 3.83436C15.9216 3.79374 16.056 3.79374 16.1857 3.83436L23.3513 6.11872C23.6091 6.18903 23.8028 6.42966 23.8075 6.71092C23.8309 8.55 23.9122 10.4016 23.9887 12.2657C24.0231 13.0329 24.0528 13.8064 24.0825 14.6157L24.0887 14.7032C24.1419 16.022 24.2059 17.7673 23.6903 19.0624C23.4559 19.6546 23.0872 20.1937 22.6653 20.6796C22.2606 21.1484 21.8044 21.564 21.37 21.939C19.8231 23.2812 18.0715 24.5281 16.378 25.7233L16.367 25.7343C16.1561 25.8921 15.8639 25.9046 15.6343 25.7405L15.6108 25.7233C13.9171 24.5218 12.1655 23.2796 10.6188 21.939C10.186 21.564 9.73445 21.1483 9.32349 20.6796C8.90161 20.1937 8.53285 19.6546 8.29849 19.0624C7.78913 17.7671 7.85317 16.0218 7.90631 14.7032L7.91256 14.6157C7.94224 13.8126 7.97662 13.0392 8.00631 12.2657C8.08756 10.4032 8.16412 8.55636 8.18756 6.71092C8.19381 6.44686 8.35787 6.2078 8.62036 6.125H8.62641Z" fill="black"/>
<path d="M16.1908 0.665599L26.0628 3.81716C26.3269 3.89841 26.4956 4.14528 26.4956 4.40936C26.4956 7.81404 26.6237 10.4158 26.7237 12.5002C27.1565 21.3938 27.1628 21.5238 16.3533 29.2518C16.1252 29.4096 15.8315 29.3986 15.6205 29.2455C4.82853 21.5235 4.83453 21.4003 5.26133 12.5063C5.36133 10.4141 5.48946 7.81271 5.48946 4.41551C5.48946 4.11707 5.70039 3.86551 5.98166 3.80615L15.8065 0.671789C15.9346 0.631165 16.0705 0.637414 16.1877 0.671789L16.1908 0.665599ZM25.2548 4.8608L16.0032 1.90768L6.75161 4.8608C6.74067 8.00768 6.61723 10.52 6.51723 12.5592C6.12505 20.692 6.11255 20.9028 16.0032 27.9748C25.894 20.8968 25.8812 20.6856 25.4892 12.5592C25.3892 10.5201 25.2674 8.006 25.2549 4.8608H25.2548Z" fill="black"/>
<path d="M20.5608 11.6624C20.8061 11.4171 21.1999 11.4171 21.4452 11.6624C21.6904 11.9077 21.6905 12.3015 21.4452 12.5468L14.936 19.056C14.6906 19.3013 14.2969 19.3013 14.0516 19.056L10.5532 15.5575C10.3078 15.3122 10.3078 14.9184 10.5532 14.6732C10.7985 14.4279 11.1922 14.4279 11.4375 14.6732L14.4953 17.731L20.5657 11.6606L20.5608 11.6624Z" fill="black"/>
<path d="M5.808 16.9248C6.15331 16.9248 6.43455 17.206 6.43455 17.5514C6.43455 17.8967 6.1533 18.1779 5.808 18.1779H0.997196C0.651884 18.1779 0.370636 17.8967 0.370636 17.5514V8.12496C0.370636 7.77965 0.651884 7.4984 0.997196 7.4984H5.9536C6.29891 7.4984 6.58015 7.77965 6.58015 8.12496C6.58015 8.47027 6.29891 8.75152 5.9536 8.75152H1.624V16.9251L5.808 16.9248ZM26.0392 8.7512C25.6939 8.7512 25.4126 8.46995 25.4126 8.12464C25.4126 7.77933 25.6939 7.49808 26.0392 7.49808H30.9956C31.3409 7.49808 31.6222 7.77933 31.6222 8.12464V17.551C31.6222 17.8964 31.3409 18.1776 30.9956 18.1776H26.1848C25.8395 18.1776 25.5582 17.8964 25.5582 17.551C25.5582 17.2057 25.8395 16.9245 26.1848 16.9245H30.3676V8.75088H26.038L26.0392 8.7512Z" fill="black"/>
</svg>
